<svg xmlns="http://www.w3.org/2000/svg" viewBox="0 0 122 32" width="122" height="32" fill="none"><path fill="#003087" d="M40.51 8.561c-1.44 0-2.683.516-3.377 1.361V8.832h-3.003v13.419h3.052V14.66c0-1.687 1.337-2.736 3.003-2.736 1.782 0 2.802 1.1 2.802 2.736v7.591h3.076V14.118c0-3.127-2.232-5.557-5.553-5.557zm68.865-.729c-1.73 0-3.158.616-4.25 1.695V1.83h-3.28v20.421h3.28v-1.453c1.09 1.079 2.52 1.695 4.25 1.695 3.874 0 6.855-3.033 6.855-7.33 0-4.297-2.981-7.33-6.855-7.33zm-.313 11.5c-2.27 0-4.13-1.9-4.13-4.17s1.86-4.17 4.13-4.17c2.27 0 4.13 1.9 4.13 4.17s-1.86 4.17-4.13 4.17zm-92.775-4.17c0-4.14 3.375-7.5 7.534-7.5 2.21 0 4.208.947 5.576 2.451L26.5 7.536C24.657 5.556 21.88 4.43 18.8 4.43c-6.01 0-10.894 4.858-10.894 10.732 0 5.874 4.883 10.732 10.894 10.732 3.08 0 5.857-1.126 7.723-3.106l-2.899-2.577c-1.368 1.504-3.366 2.451-5.576 2.451-4.159 0-7.533-3.36-7.533-7.5zm51.17-6.6h-3.053v-3.15h-3.027v3.15h-2.185v2.363h2.185v7.5c0 2.774 1.075 4.17 4.277 4.17h2.482v-2.526H66.32c-1.59 0-2.077-.502-2.077-2.029v-7.115h2.908V8.561h-2.908V5.411h.018l1.111.001zm-13.59-.171c-1.541 0-2.907.502-3.776 1.758l-.201.301V8.832h-2.907V22.25h3.027v-7.732c0-2.148 1.17-3.53 2.932-3.53 1.59 0 2.61 1.03 2.61 2.736v8.526h3.027v-9.099c0-2.867-2.109-5.085-4.713-5.085zm-20.825 0c-4.252 0-7.532 3.185-7.532 7.09v.025c0 3.88 3.305 7.065 7.58 7.065 2.986 0 5.296-1.427 6.545-3.755l-2.584-1.427c-.802 1.352-2.26 2.178-3.961 2.178-2.26 0-4.134-1.528-4.544-3.556h11.766c.048-.427.072-.854.072-1.306-.024-3.58-2.881-6.314-7.342-6.314zm-4.037 5.34c.573-1.955 2.282-3.185 4.06-3.185 1.83 0 3.398 1.218 3.997 3.184h-8.057zm59.452-5.34c-4.252 0-7.533 3.185-7.533 7.09v.025c0 3.88 3.305 7.065 7.581 7.065 2.986 0 5.296-1.427 6.544-3.755l-2.584-1.427c-.801 1.352-2.258 2.178-3.96 2.178-2.259 0-4.134-1.528-4.543-3.556h11.766c.047-.427.071-.854.071-1.306-.024-3.58-2.88-6.314-7.342-6.314zm-4.037 5.34c.573-1.955 2.283-3.185 4.061-3.185 1.829 0 3.398 1.218 3.997 3.184h-8.058z"></path><path fill="#0070E0" d="M12.04 4.908a.568.568 0 0 0-.801 0L.366 15.613a.55.55 0 0 0 0 .787.568.568 0 0 0 .8 0l10.874-10.705a.549.549 0 0 0 0-.787z"></path><path fill="#001C64" d="M8.44 8.457a.568.568 0 0 0-.8 0L.366 15.613a.55.55 0 0 0 0 .787.568.568 0 0 0 .8 0l7.274-7.157a.548.548 0 0 0 0-.786z"></path><path fill="#0070E0" d="M12.04 12.005a.568.568 0 0 0-.801 0L.366 22.71a.55.55 0 0 0 0 .787.568.568 0 0 0 .8 0l10.874-10.705a.548.548 0 0 0 0-.787z"></path><path fill="#001C64" d="M8.44 15.553a.567.567 0 0 0-.8 0L.366 22.71a.55.55 0 0 0 0 .787.568.568 0 0 0 .8 0l7.274-7.157a.548.548 0 0 0 0-.787z"></path></svg>